<?xml version="1.0" encoding="UTF-8" standalone="no"?>
<!DOCTYPE svg PUBLIC "-//W3C//DTD SVG 1.1//EN" "http://www.w3.org/Graphics/SVG/1.1/DTD/svg11.dtd">
<svg width="100%" height="100%" viewBox="0 0 450 150" version="1.1" xmlns="http://www.w3.org/2000/svg" xmlns:xlink="http://www.w3.org/1999/xlink" xml:space="preserve" style="fill-rule:evenodd;clip-rule:evenodd;stroke-linejoin:round;stroke-miterlimit:1.41421;">
    <g transform="matrix(1,0,0,1,-54.0842,60.9099)">
        <path d="M54.215,51.26L74.519,51.26L74.519,-4.9L74.735,-4.9L84.239,51.26L99.791,51.26L109.295,-4.9L109.511,-4.9L109.511,51.26L129.815,51.26L129.815,-25.852L99.143,-25.852L92.123,21.344L91.907,21.344L85.535,-25.852L54.215,-25.852L54.215,51.26Z" style="fill-rule:nonzero;"/>
        <path d="M138.239,51.26L185.651,51.26L185.651,33.764L159.839,33.764L159.839,20.372L183.059,20.372L183.059,3.524L159.839,3.524L159.839,-8.356L184.679,-8.356L184.679,-25.852L138.239,-25.852L138.239,51.26Z" style="fill-rule:nonzero;"/>
        <path d="M224.207,2.012L213.839,2.012L213.839,-25.852L192.239,-25.852L192.239,51.26L213.839,51.26L213.839,20.156L224.207,20.156L224.207,51.26L245.807,51.26L245.807,-25.852L224.207,-25.852L224.207,2.012Z" style="fill-rule:nonzero;"/>
        <path d="M275.831,-10.3L278.315,-10.3C283.175,-10.3 286.307,-8.788 286.307,-2.416C286.307,5.036 282.527,6.656 278.963,6.656L275.831,6.656L275.831,-10.3ZM254.231,51.26L275.831,51.26L275.831,20.912L279.827,20.912C283.607,20.912 285.767,22.1 285.767,28.688C285.767,32.468 286.091,36.356 286.091,40.136C286.091,43.916 286.307,49.532 287.711,51.26L310.607,51.26L310.607,50.18C309.635,49.748 308.879,48.992 308.339,47.912C307.799,46.832 307.367,43.16 307.367,38.84L307.367,32.468C307.367,27.932 307.259,22.748 305.315,19.292C303.263,15.62 299.375,13.46 295.055,13.136L295.055,12.92C302.615,11.84 307.907,6.656 307.907,-5.656C307.907,-18.508 301.535,-25.852 286.631,-25.852L254.231,-25.852L254.231,51.26Z" style="fill-rule:nonzero;"/>
        <path d="M352.511,51.26L374.759,51.26L356.615,-25.852L329.507,-25.852L311.255,51.26L333.503,51.26L335.663,39.488L350.135,39.488L352.511,51.26ZM347.759,22.64L337.931,22.64L342.899,-9.004L343.115,-9.004L347.759,22.64Z" style="fill-rule:nonzero;"/>
        <path d="M413.207,21.236L412.991,21.236L401.975,-25.852L378.539,-25.852L378.539,51.26L398.195,51.26L398.195,3.74L398.411,3.74L410.399,51.26L433.511,51.26L433.511,-25.852L413.207,-25.852L413.207,21.236Z" style="fill-rule:nonzero;"/>
    </g>
</svg>
